<svg xmlns="http://www.w3.org/2000/svg" width="740.84" height="608.466" viewBox="0 0 740.84 608.466">
  <g id="Gruppe_13" data-name="Gruppe 13" transform="translate(123 -1616)">
    <path id="Pfad_74" data-name="Pfad 74" d="M970.42,735.63c.226,23.706-149.154,25.878-152,0C818.194,711.928,967.574,709.755,970.42,735.63Z" transform="translate(-352.58 1470.233)" fill="#e6e6e6"/>
    <path id="Pfad_75" data-name="Pfad 75" d="M623.966,507.569l-11.1,6.055,7.065,23.213,11.1,1.009,6.056-13.12Z" transform="translate(-123 1616)" fill="#9f616a"/>
    <path id="Pfad_76" data-name="Pfad 76" d="M658.28,553.994v11.1l17.157-1.009-.239-9.143Z" transform="translate(-123 1616)" fill="#9f616a"/>
    <path id="Pfad_77" data-name="Pfad 77" d="M619.929,374.348l6.055,75.694L645.16,561.058l30.277-4.037-10.092-87.8,4.037-80.739Z" transform="translate(-123 1616)" fill="#2f2e41"/>
    <path id="Pfad_78" data-name="Pfad 78" d="M930.248,463.6l-72.666,1.009-8.074,55.508,49.453,23.213,12.111,44.407-61.564,65.6,24.222,30.277s34.314-46.425,59.545-72.666S946.4,504.977,946.4,504.977Z" transform="translate(-352.58 1470.233)" fill="#2f2e41"/>
    <circle id="Ellipse_37" data-name="Ellipse 37" cx="22.203" cy="22.203" r="22.203" transform="translate(512.067 1746.111)" fill="#9f616a"/>
    <path id="Pfad_79" data-name="Pfad 79" d="M878.777,313.221v22.2l15.139,24.222s23.213-17.157,18.166-21.194-6.055-35.324-6.055-35.324Z" transform="translate(-352.58 1470.233)" fill="#9f616a"/>
    <path id="Pfad_80" data-name="Pfad 80" d="M649.2,185.62l-15.139,18.166,6.056,126.155,47.434-1.009,8.074-110.007L685.53,190.666l-6.923-9.419-12.253,18.5Z" transform="translate(-123 1616)" fill="#ffd368"/>
    <path id="Pfad_81" data-name="Pfad 81" d="M854.555,396.988l-11.1,42.388,11.1,42.388-18.166,24.222-16.148-76.7s12.111-62.573,13.12-69.638,3.028-8.074,3.028-8.074l8.074,1.009Z" transform="translate(-352.58 1470.233)" fill="#2f2e41"/>
    <path id="Pfad_82" data-name="Pfad 82" d="M705.714,267.368l7.065,13.121,2.019,22.2-4.037,25.231,14.129,23.213,14.129-63.583L723.881,205.8h-6.056Z" transform="translate(-123 1616)" fill="#2f2e41"/>
    <path id="Pfad_83" data-name="Pfad 83" d="M849.509,652.327s-14.129,4.037-19.176,5.046,3.028,20.185,3.028,20.185,5.046,26.24,6.055,31.287,8.074,22.2,17.157,24.222,3.028-35.324,3.028-35.324,4.037-12.111,4.037-16.148-6.055-2.018-6.055-2.018C841.435,677.558,849.509,652.327,849.509,652.327Z" transform="translate(-352.58 1470.233)" fill="#2f2e41"/>
    <path id="Pfad_84" data-name="Pfad 84" d="M882.814,730.039c1.009,6.055-1.009,6.055,15.139,8.074s12.111-11.1,12.111-11.1a84.809,84.809,0,0,0-4.037-18.166c-3.028-8.074-19.176,2.018-19.176,2.018S881.8,723.983,882.814,730.039Z" transform="translate(-352.58 1470.233)" fill="#2f2e41"/>
    <path id="Pfad_85" data-name="Pfad 85" d="M906.053,303.833l.526,8.976s6.512-14.727,7.522-29.865-16.148-18.166-26.24-19.176-27.25,6.055-27.25,14.129,18.166,6.055,25.231,4.037,10.092,15.139,10.092,15.139l4.037,1.009Z" transform="translate(-352.58 1470.233)" fill="#2f2e41"/>
    <path id="Pfad_86" data-name="Pfad 86" d="M643.24,192.767l5.957-7.147,17.157,14.129L649.2,211.86Z" transform="translate(-123 1616)" fill="#ffd368"/>
    <path id="Pfad_87" data-name="Pfad 87" d="M685.53,190.666l-7.065-9.083-12.111,18.166,15.139,11.1Z" transform="translate(-123 1616)" fill="#ffd368"/>
    <path id="Pfad_88" data-name="Pfad 88" d="M851.527,411.117l4.037,38.351-8.074,23.213-5.046,22.2s0,21.194,20.185,22.2,37.342-63.582,37.342-63.582,3.028,14.129,5.046,22.2,36.333,40.37,36.333,40.37,8.074-1.009,15.139-17.157-14.129-31.287-14.129-31.287L936.3,446.441l2.018-26.24,14.13-68.629-41.884-21.7L915.11,387.9l-15.139,45.416L877.263,332.9l-7.569,5.551-32.3,13.12Z" transform="translate(-352.58 1470.233)" fill="#2f2e41"/>
    <path id="Pfad_89" data-name="Pfad 89" d="M452.664,563.767c-2-.016-4.014-.029-6-.091l.062-2c1.962.061,3.968.088,5.936.09s3.99-.032,5.987-.1l.064,2C456.7,563.734,454.661,563.767,452.664,563.767Zm-18.019-.845c-3.981-.377-8-.888-11.951-1.518l.315-1.975c3.906.623,7.884,1.129,11.824,1.5Zm36.092-.021-.19-1.99c3.938-.377,7.916-.888,11.822-1.517l.318,1.975c-3.949.636-7.969,1.151-11.95,1.532Zm-59.873-3.778c-3.9-.884-7.821-1.907-11.658-3.041l.567-1.918c3.8,1.122,7.676,2.134,11.533,3.008Zm83.648-.05-.444-1.949c3.866-.882,7.745-1.9,11.53-3.022l.569,1.918c-3.826,1.136-7.747,2.163-11.655,3.054ZM387.768,552.3c-3.762-1.382-7.525-2.9-11.187-4.523l.81-1.828c3.622,1.6,7.345,3.107,11.066,4.475Zm129.833-.078-.691-1.877c3.7-1.362,7.409-2.867,11.028-4.473l.812,1.828C525.091,549.32,521.34,550.841,517.6,552.218Zm-151.887-9.68c-3.54-1.848-7.075-3.84-10.506-5.92l1.037-1.711c3.395,2.06,6.892,4.029,10.395,5.857Zm173.873-.073-.926-1.772c3.494-1.827,6.983-3.8,10.369-5.854l1.039,1.709C546.646,538.628,543.12,540.618,539.587,542.465ZM345.105,530.039c-3.279-2.288-6.528-4.715-9.659-7.211l1.247-1.564c3.1,2.471,6.313,4.871,9.557,7.135Zm215.05-.071-1.146-1.639c3.243-2.267,6.454-4.667,9.544-7.135l1.248,1.563C566.678,525.251,563.432,527.676,560.155,529.967ZM326.268,515.014c-2.964-2.69-5.878-5.51-8.66-8.378l1.436-1.393c2.752,2.838,5.636,5.627,8.569,8.29Zm252.7-.069-1.346-1.48c2.926-2.657,5.807-5.448,8.563-8.293l1.436,1.391C584.838,509.438,581.926,512.258,578.97,514.945ZM309.5,497.726c-2.6-3.043-5.125-6.208-7.521-9.407l1.6-1.2c2.371,3.166,4.874,6.3,7.442,9.308Zm286.228-.083-1.521-1.3c2.567-3.013,5.071-6.148,7.441-9.318l1.6,1.2c-2.4,3.2-4.926,6.373-7.521,9.418ZM295.075,478.452c-2.188-3.351-4.293-6.811-6.258-10.284l1.741-.984c1.943,3.437,4.027,6.86,6.192,10.175Zm315.083-.108-1.676-1.092c2.166-3.321,4.249-6.751,6.193-10.2l1.742.982c-1.965,3.482-4.071,6.949-6.26,10.3ZM283.231,457.505c-1.74-3.6-3.384-7.3-4.886-11l1.853-.752c1.486,3.656,3.113,7.316,4.834,10.877ZM622,457.349l-1.8-.869c1.721-3.566,3.348-7.236,4.836-10.91l1.854.75C625.388,450.034,623.744,453.745,622,457.349ZM274.17,435.208c-1.265-3.8-2.421-7.685-3.436-11.55l1.935-.508c1,3.823,2.147,7.668,3.4,11.425ZM631.059,435l-1.9-.629c1.244-3.753,2.384-7.6,3.385-11.43l1.936.506C633.469,427.316,632.317,431.2,631.059,435ZM268.052,411.914c-.764-3.924-1.411-7.925-1.922-11.893l1.983-.256c.506,3.926,1.146,7.884,1.9,11.766Zm369.1-.22-1.963-.379c.75-3.881,1.386-7.841,1.887-11.77l1.984.254c-.507,3.971-1.149,7.973-1.908,11.895ZM264.973,388.031c-.256-3.986-.389-8.038-.393-12.043l2,0c0,3.963.135,7.972.389,11.916Zm375.228-.224-2-.127c.249-3.94.375-7.949.375-11.913v-.438h2v.432c0,4.013-.128,8.063-.379,12.047ZM266.942,364.072l-2-.123c.248-3.994.627-8.029,1.128-11.994l1.984.25C267.562,356.128,267.187,360.121,266.942,364.072Zm371.236-.656c-.26-3.953-.649-7.944-1.158-11.862L639,351.3c.515,3.96.909,7.993,1.172,11.989Zm-368.247-22.98-1.964-.378c.754-3.925,1.648-7.879,2.655-11.751l1.936.5C271.561,332.64,270.678,336.551,269.931,340.435ZM635.1,339.79c-.762-3.886-1.66-7.794-2.668-11.617l1.934-.51c1.02,3.864,1.927,7.814,2.7,11.742ZM275.93,317.376l-1.9-.627c1.255-3.8,2.653-7.612,4.154-11.331l1.854.749C278.554,309.846,277.171,313.617,275.93,317.376Zm353.095-.624c-1.256-3.754-2.649-7.514-4.143-11.177l1.852-.755c1.51,3.7,2.919,7.5,4.188,11.3Zm-344.161-21.5-1.8-.867c1.735-3.606,3.611-7.205,5.575-10.7l1.743.981C288.435,288.122,286.579,291.682,284.863,295.25Zm335.172-.545c-1.723-3.551-3.585-7.1-5.538-10.542l1.74-.986c1.974,3.48,3.856,7.066,5.6,10.656ZM296.56,274.465l-1.677-1.091c2.181-3.353,4.5-6.68,6.895-9.89l1.6,1.2C301.013,267.856,298.718,271.148,296.56,274.465Zm311.732-.471c-2.164-3.305-4.466-6.587-6.843-9.754l1.6-1.2c2.4,3.2,4.729,6.518,6.917,9.858Zm-297.48-18.641-1.523-1.295c2.59-3.047,5.313-6.051,8.094-8.928l1.438,1.39C316.07,249.367,313.376,252.339,310.812,255.354ZM594,254.941c-2.571-3.006-5.274-5.97-8.032-8.808l1.434-1.394c2.788,2.868,5.52,5.863,8.118,8.9ZM327.374,238.216l-1.347-1.479c2.959-2.7,6.042-5.328,9.16-7.823l1.25,1.562C333.352,232.945,330.3,235.549,327.374,238.216Zm250.011-.363c-2.933-2.655-5.99-5.251-9.09-7.717l1.246-1.565c3.132,2.493,6.223,5.117,9.186,7.8ZM345.973,223.33l-1.147-1.638c3.272-2.293,6.663-4.511,10.078-6.591l1.041,1.708C352.566,218.868,349.211,221.062,345.973,223.33Zm212.758-.318c-3.256-2.266-6.621-4.453-10-6.5l1.035-1.711c3.418,2.068,6.82,4.278,10.11,6.568ZM366.307,210.942l-.929-1.771c3.536-1.854,7.18-3.619,10.831-5.245l.813,1.827C373.41,207.361,369.805,209.107,366.307,210.942Zm172.02-.274c-3.512-1.828-7.131-3.566-10.758-5.166l.808-1.83c3.665,1.617,7.324,3.374,10.874,5.221Zm-150.281-9.4-.694-1.876c3.75-1.387,7.6-2.67,11.429-3.813l.571,1.917C395.559,198.625,391.755,199.895,388.046,201.267ZM516.5,201.04c-3.717-1.36-7.526-2.616-11.32-3.732l.564-1.919c3.835,1.128,7.685,2.4,11.443,3.773Zm-105.62-6.58-.446-1.949c3.891-.892,7.869-1.668,11.824-2.311l.32,1.975C418.663,192.81,414.727,193.578,410.878,194.46Zm82.763-.145c-3.856-.869-7.795-1.624-11.706-2.244l.313-1.976c3.953.627,7.934,1.39,11.832,2.269Zm-59.245-3.67-.193-1.99c3.971-.385,8.015-.648,12.021-.782l.066,2c-3.963.132-7.965.392-11.894.773Zm35.713-.062c-3.935-.368-7.937-.614-11.9-.731l.06-2c4,.119,8.046.368,12.022.739Z" transform="translate(-352.58 1470.233)" fill="#454350"/>
    <circle id="Ellipse_38" data-name="Ellipse 38" cx="47" cy="47" r="47" transform="translate(46 1616)" fill="#5ab1ba"/>
    <circle id="Ellipse_39" data-name="Ellipse 39" cx="47" cy="47" r="47" transform="translate(228 1744)" fill="#5ab1ba"/>
    <circle id="Ellipse_40" data-name="Ellipse 40" cx="47" cy="47" r="47" transform="translate(171 1940)" fill="#5ab1ba"/>
    <circle id="Ellipse_41" data-name="Ellipse 41" cx="47" cy="47" r="47" transform="translate(-55 1948)" fill="#5ab1ba"/>
    <circle id="Ellipse_42" data-name="Ellipse 42" cx="47" cy="47" r="47" transform="translate(-123 1744)" fill="#5ab1ba"/>
    <path id="Pfad_90" data-name="Pfad 90" d="M465.721,189.02H449.327a5.621,5.621,0,0,1-5.621-5.621V167.005a.468.468,0,0,0-.468-.468H432.465a7.494,7.494,0,0,0-7.494,7.494V211.5A7.494,7.494,0,0,0,432.465,219H458.7a7.494,7.494,0,0,0,7.494-7.494V189.488A.468.468,0,0,0,465.721,189.02Zm-10.773,18.736H436.212a1.874,1.874,0,0,1,0-3.747h18.736a1.874,1.874,0,0,1,0,3.747Zm0-9.368H436.212a1.874,1.874,0,0,1,0-3.747h18.736a1.874,1.874,0,0,1,0,3.747Z" transform="translate(-352.58 1470.233)" fill="#fff"/>
    <path id="Pfad_91" data-name="Pfad 91" d="M464.693,184.874l-16.84-16.84a.234.234,0,0,0-.4.165v15.2a1.874,1.874,0,0,0,1.874,1.874h15.2a.234.234,0,0,0,.165-.4Z" transform="translate(-352.58 1470.233)" fill="#fff"/>
    <path id="Pfad_92" data-name="Pfad 92" d="M577.378,507.508a2.491,2.491,0,1,0,1.762.729,2.491,2.491,0,0,0-1.762-.729Z" transform="translate(-352.58 1470.233)" fill="#fff"/>
    <path id="Pfad_93" data-name="Pfad 93" d="M591.245,497.548v-.008a1.9,1.9,0,0,0-1.412-1.428c-2.781-.678-7.156.045-12,1.986a38.609,38.609,0,0,0-12.559,7.953,29.932,29.932,0,0,0-2.758,3.157,12.232,12.232,0,0,0-5.466.878c-5.388,2.371-6.927,8.44-7.337,10.932a2.333,2.333,0,0,0,2.537,2.706h.012l6-.655c.007.077.016.147.022.211a3.207,3.207,0,0,0,.924,1.934l2.93,2.931a3.2,3.2,0,0,0,1.933.925l.2.021-.653,6v.012a2.333,2.333,0,0,0,2.081,2.561q.108.011.216.012a2.352,2.352,0,0,0,.387-.032c2.506-.4,8.572-1.923,10.937-7.341a12.342,12.342,0,0,0,.882-5.444,29.366,29.366,0,0,0,3.168-2.758,38.329,38.329,0,0,0,7.961-12.461C591.179,504.843,591.906,500.435,591.245,497.548Zm-9.991,16.32a5.485,5.485,0,1,1,0-7.756l0,0a5.441,5.441,0,0,1,.058,7.694Z" transform="translate(-352.58 1470.233)" fill="#fff"/>
    <path id="Pfad_94" data-name="Pfad 94" d="M561.8,528.94a1.493,1.493,0,0,0-1.027.249c-.6.408-1.2.811-1.8,1.2a1.392,1.392,0,0,1-1.96-1.866l1.134-1.96a1.493,1.493,0,0,0-1.415-2.325,5.717,5.717,0,0,0-3.325,1.629c-.342.343-1.38,1.382-1.939,5.344a33.4,33.4,0,0,0-.3,3.432,1.493,1.493,0,0,0,1.454,1.531h.076a33.577,33.577,0,0,0,3.434-.3c3.963-.56,5-1.6,5.345-1.941A5.645,5.645,0,0,0,563.1,530.6a1.493,1.493,0,0,0-1.3-1.663Z" transform="translate(-352.58 1470.233)" fill="#fff"/>
    <path id="Pfad_95" data-name="Pfad 95" d="M328.4,550.307H325a2.554,2.554,0,0,1-2.554-2.554V532.429A2.554,2.554,0,0,1,325,529.875H328.4a2.554,2.554,0,0,1,2.554,2.554v15.324A2.554,2.554,0,0,1,328.4,550.307Z" transform="translate(-352.58 1470.233)" fill="#fff"/>
    <path id="Pfad_96" data-name="Pfad 96" d="M352.242,550.307h-3.405a2.554,2.554,0,0,1-2.554-2.554v-25.54a2.554,2.554,0,0,1,2.554-2.554h3.405a2.554,2.554,0,0,1,2.554,2.554v25.54A2.554,2.554,0,0,1,352.242,550.307Z" transform="translate(-352.58 1470.233)" fill="#fff"/>
    <path id="Pfad_97" data-name="Pfad 97" d="M364.16,550.307h-3.405a2.554,2.554,0,0,1-2.554-2.554V510.295a2.554,2.554,0,0,1,2.554-2.554h3.405a2.554,2.554,0,0,1,2.554,2.554v37.458a2.554,2.554,0,0,1-2.554,2.554Z" transform="translate(-352.58 1470.233)" fill="#fff"/>
    <path id="Pfad_98" data-name="Pfad 98" d="M340.323,550.307h-3.405a2.554,2.554,0,0,1-2.554-2.554V501.781a2.554,2.554,0,0,1,2.554-2.554h3.405a2.554,2.554,0,0,1,2.554,2.554v45.972a2.554,2.554,0,0,1-2.554,2.554Z" transform="translate(-352.58 1470.233)" fill="#fff"/>
    <path id="Pfad_99" data-name="Pfad 99" d="M629.831,319.536,627.4,317.1a2.982,2.982,0,0,0-4.206-.011L606.278,332.7a3.159,3.159,0,0,0-1.058,2.149,2.992,2.992,0,0,0,.858,2.231l3.634,3.674.007.007a3.009,3.009,0,0,0,2.114.878h.11A3.129,3.129,0,0,0,614.1,340.6l15.719-16.837a2.982,2.982,0,0,0,.018-4.217Z" transform="translate(-352.58 1470.233)" fill="#fff"/>
    <path id="Pfad_100" data-name="Pfad 100" d="M649.384,314.617l-.029-.029-3.193-3.161a2,2,0,0,0-1.424-.583,2.039,2.039,0,0,0-1.192.386c0-.04.006-.079.008-.114a3.407,3.407,0,0,0-.485-2.35,24.032,24.032,0,0,0-2.311-2.678l-.008-.007a25.222,25.222,0,0,0-8.081-5.212,13,13,0,0,0-4.946-.974,9.426,9.426,0,0,0-6.033,2.113,11.168,11.168,0,0,0-1.321,1.511,1.491,1.491,0,0,0,1.738,2.268,6.933,6.933,0,0,1,.8-.245,5.913,5.913,0,0,1,1.719-.107,7.228,7.228,0,0,1,3.326,1.22,4.79,4.79,0,0,1,1.7,3.829,9.939,9.939,0,0,1-1.864,3.213,1.491,1.491,0,0,0,.135,1.957l3.206,3.206a1.491,1.491,0,0,0,2.05.058c.907-.81,2.288-2.03,2.77-2.329a3.471,3.471,0,0,1,1.37-.54,1.787,1.787,0,0,1,1.052.222.116.116,0,0,1-.029.089l-.17.161-.028.026a2.005,2.005,0,0,0-.005,2.836l.01.01,3.192,3.16a2,2,0,0,0,1.424.582,2.022,2.022,0,0,0,1.418-.578l5.171-5.108.052-.055a2.038,2.038,0,0,0-.026-2.775Z" transform="translate(-352.58 1470.233)" fill="#fff"/>
    <path id="Pfad_101" data-name="Pfad 101" d="M284.042,317.969a1.866,1.866,0,0,1-1.319-3.185L287,310.506l-4.277-4.278a1.866,1.866,0,1,1,2.638-2.638l5.6,5.6a1.865,1.865,0,0,1,0,2.638l-5.6,5.6a1.86,1.86,0,0,1-1.319.546Z" transform="translate(-352.58 1470.233)" fill="#fff"/>
    <path id="Pfad_102" data-name="Pfad 102" d="M254.193,323.565a1.866,1.866,0,0,1-1.866-1.866v-1.866a11.249,11.249,0,0,1,11.188-11.194h24.258a1.866,1.866,0,1,1,0,3.731H263.521a7.507,7.507,0,0,0-7.462,7.468v1.86a1.866,1.866,0,0,1-1.866,1.866Z" transform="translate(-352.58 1470.233)" fill="#fff"/>
    <path id="Pfad_103" data-name="Pfad 103" d="M269.118,338.49a1.86,1.86,0,0,1-1.319-.546l-5.6-5.6a1.865,1.865,0,0,1,0-2.638l5.6-5.6a1.866,1.866,0,1,1,2.638,2.638l-4.278,4.278,4.278,4.278a1.866,1.866,0,0,1-1.319,3.185Z" transform="translate(-352.58 1470.233)" fill="#fff"/>
    <path id="Pfad_104" data-name="Pfad 104" d="M265.386,332.893a1.866,1.866,0,0,1,0-3.731h24.253a7.507,7.507,0,0,0,7.462-7.468v-1.86a1.866,1.866,0,1,1,3.731,0V321.7a11.249,11.249,0,0,1-11.188,11.194Z" transform="translate(-352.58 1470.233)" fill="#fff"/>
  </g>
</svg>
