<svg id="undraw_data_reports_706v_1_" data-name="undraw_data_reports_706v (1)" xmlns="http://www.w3.org/2000/svg" width="1100" height="720.286" viewBox="0 0 1100 720.286">
  <ellipse id="Ellipse_50" data-name="Ellipse 50" cx="157.62" cy="12.022" rx="157.62" ry="12.022" transform="translate(0 696.243)" fill="#e6e6e6"/>
  <path id="Pfad_221" data-name="Pfad 221" d="M360.274,331.411l-62.882-17.15q25.187-23.767,21.913-44.78h40.969Z" transform="translate(-151.604 -150.468)" fill="#9f616a"/>
  <path id="Pfad_222" data-name="Pfad 222" d="M187.555,567.025l-20.312,2.857-24.469-224.85-39.063,223.9-20.961.952V285.961H212.327Z" transform="translate(27.785 96.015)" fill="#2f2e41"/>
  <path id="Pfad_223" data-name="Pfad 223" d="M282.387,724.039h0a14.287,14.287,0,0,0,14.168-10.44l1.484-22.14-2.991-15.7c-7.891-6.485-15.869-6.35-23.927,0l-2.569,32.889a14.286,14.286,0,0,0,13.835,15.393Z" transform="translate(-161.302 -15.672)" fill="#2f2e41"/>
  <path id="Pfad_224" data-name="Pfad 224" d="M345.155,724.039h0a14.287,14.287,0,0,0,14.168-10.44l1.484-22.14-2.991-15.7c-7.891-6.485-15.869-6.35-23.927,0l-2.569,32.889a14.286,14.286,0,0,0,13.835,15.393Z" transform="translate(-140.227 -15.672)" fill="#2f2e41"/>
  <circle id="Ellipse_51" data-name="Ellipse 51" cx="36.205" cy="36.205" r="36.205" transform="translate(163.89 76.14)" fill="#9f616a"/>
  <path id="Pfad_225" data-name="Pfad 225" d="M407.011,529.065H268.861c17.906-82.983,17.856-149.817,3.593-203.868a14.444,14.444,0,0,1,8.784-17.169l37.167-14.3c11.158,14.41,26.9,20.7,51.449,11.433l19.476,4A20.013,20.013,0,0,1,405.3,330.087c-1.434,21.139-.868,42.44-2.1,60.828C399.381,447.856,397.732,492.246,407.011,529.065Z" transform="translate(-161.184 -142.325)" fill="#ffd368"/>
  <path id="Pfad_226" data-name="Pfad 226" d="M329.619,231.559s20.961-23.819,45.732-.953l6.669,1.906-4.764,3.811s24.772,11.433,22.866,35.252c0,0-3.811-.953-5.717,0s-2.858,11.433-2.858,11.433-2.858-7.622-3.811-8.575-14.291,10.48-36.2-6.669c0,0-6.669,17.15-14.291,15.244s-18.1-.953-22.866,11.433C314.375,294.441,288.65,239.181,329.619,231.559Z" transform="translate(-148.579 -166.852)" fill="#2f2e41"/>
  <path id="Pfad_227" data-name="Pfad 227" d="M381.154,488.226l-12.23,16.393a16.065,16.065,0,0,0,3.465,22.627h0a16.065,16.065,0,0,0,25.274-10.482l3.5-21.868,6.669-94.323-4.764-47.638L372.58,364.368l8.575,40.969Z" transform="translate(-128.657 -122.448)" fill="#9f616a"/>
  <path id="Pfad_228" data-name="Pfad 228" d="M370.88,391.847l37.158-17.15-1.906-13.5a55.419,55.419,0,0,0-35.383-51.67l-11.3-4.382Z" transform="translate(-130.769 -138.493)" fill="#ffd368"/>
  <path id="Pfad_229" data-name="Pfad 229" d="M273.427,485.373l12.23,16.393a16.065,16.065,0,0,1-3.465,22.627h0a16.065,16.065,0,0,1-25.274-10.482l-3.5-21.868-6.669-94.323,4.764-47.638L282,361.515l-8.575,40.969Z" transform="translate(-168.608 -123.406)" fill="#9f616a"/>
  <path id="Pfad_230" data-name="Pfad 230" d="M285.334,388.994l-37.158-17.15,1.906-13.5a55.418,55.418,0,0,1,35.383-51.67l11.3-4.383Z" transform="translate(-168.129 -139.451)" fill="#ffd368"/>
  <path id="Pfad_231" data-name="Pfad 231" d="M1166.591,714.655H530.768a10.029,10.029,0,0,1-10.018-10.018v-276.5a10.029,10.029,0,0,1,10.018-10.018h635.823a10.029,10.029,0,0,1,10.018,10.018v276.5A10.029,10.029,0,0,1,1166.591,714.655ZM530.768,422.124a6.018,6.018,0,0,0-6.011,6.011v276.5a6.017,6.017,0,0,0,6.011,6.011h635.823a6.018,6.018,0,0,0,6.011-6.011v-276.5a6.018,6.018,0,0,0-6.011-6.011Z" transform="translate(-76.609 -100.562)" fill="#e6e6e6"/>
  <path id="Pfad_232" data-name="Pfad 232" d="M549.261,443.616a6.011,6.011,0,0,0,0,12.022h84.153a6.011,6.011,0,1,0,0-12.022Z" transform="translate(-69.054 -92)" fill="#e6e6e6"/>
  <path id="Pfad_233" data-name="Pfad 233" d="M1121.682,475.514V586.983H554.21v-58.69c3.93-2.523,7.883-5.035,11.872-7.464,17.036-10.425,35.271-20.175,55.145-23.789a83.246,83.246,0,0,1,28.469-.355c9.972,1.647,19.517,5.082,28.967,8.53,9.319,3.412,18.662,6.93,28.409,8.909a83.18,83.18,0,0,0,28.813.569c18.247-2.737,35.39-10.07,52.461-16.7,17.179-6.67,34.879-12.973,53.471-13.8,18.354-.829,36.482,3.507,53.9,8.885,35.509,10.959,71.765,27.213,109.363,16.065,38.18-11.3,73.3-43.929,115.607-34.25a1.593,1.593,0,0,1,1,.628Z" transform="translate(-65.375 -82.095)" fill="#e6e6e6"/>
  <path id="Pfad_234" data-name="Pfad 234" d="M1121.785,477.457a1.713,1.713,0,0,1-1.943.853,63.271,63.271,0,0,0-15.377-1.588c-41.619.735-73.618,34.238-114.312,39.249-36.69,4.514-71.224-13.328-105.723-22.652-17.925-4.845-36.406-7.416-54.852-4.123-18.3,3.258-35.482,10.745-52.731,17.392-16.61,6.4-33.871,12.345-51.854,12.641-19.773.332-37.579-7.819-55.918-14.027-9.537-3.234-19.323-5.793-29.428-6.042a89.026,89.026,0,0,0-29,4.49c-19.488,6.2-37.046,17.237-54.141,28.208a1.519,1.519,0,0,1-1.007.273,1.835,1.835,0,0,1-.782-3.341l.782-.5c3.921-2.523,7.867-5.035,11.847-7.464,17-10.425,35.2-20.175,55.029-23.789a82.9,82.9,0,0,1,28.409-.355c9.952,1.647,19.477,5.083,28.907,8.53,9.3,3.412,18.624,6.93,28.35,8.909a82.833,82.833,0,0,0,28.753.569c18.209-2.737,35.316-10.07,52.352-16.7,17.143-6.67,34.807-12.973,53.359-13.8,18.315-.829,36.406,3.507,53.785,8.885,35.435,10.959,71.615,27.213,109.135,16.065,38.1-11.3,73.143-43.929,115.366-34.25a1.589,1.589,0,0,1,1,.628A1.824,1.824,0,0,1,1121.785,477.457Z" transform="translate(-65.477 -82.095)" fill="#5ab1ba"/>
  <circle id="Ellipse_52" data-name="Ellipse 52" cx="8.293" cy="8.293" r="8.293" transform="translate(558.732 407.742)" fill="#5ab1ba"/>
  <circle id="Ellipse_53" data-name="Ellipse 53" cx="8.293" cy="8.293" r="8.293" transform="translate(768.425 397.08)" fill="#5ab1ba"/>
  <circle id="Ellipse_54" data-name="Ellipse 54" cx="8.293" cy="8.293" r="8.293" transform="translate(1024.321 386.417)" fill="#5ab1ba"/>
  <path id="Pfad_235" data-name="Pfad 235" d="M610.761,593.616a6.011,6.011,0,0,0,0,12.022h84.153a6.011,6.011,0,1,0,0-12.022Z" transform="translate(-48.405 -41.636)" fill="#e6e6e6"/>
  <circle id="Ellipse_55" data-name="Ellipse 55" cx="22.708" cy="22.708" r="22.708" transform="translate(485.549 534.616)" fill="#5ab1ba"/>
  <path id="Pfad_236" data-name="Pfad 236" d="M762.761,593.616a6.011,6.011,0,0,0,0,12.022h84.153a6.011,6.011,0,1,0,0-12.022Z" transform="translate(2.631 -41.636)" fill="#e6e6e6"/>
  <circle id="Ellipse_56" data-name="Ellipse 56" cx="22.708" cy="22.708" r="22.708" transform="translate(688.585 534.616)" fill="#5ab1ba"/>
  <path id="Pfad_237" data-name="Pfad 237" d="M914.761,593.616a6.011,6.011,0,0,0,0,12.022h84.153a6.011,6.011,0,1,0,0-12.022Z" transform="translate(53.667 -41.636)" fill="#e6e6e6"/>
  <circle id="Ellipse_57" data-name="Ellipse 57" cx="22.708" cy="22.708" r="22.708" transform="translate(891.621 534.616)" fill="#5ab1ba"/>
  <path id="Path_78" data-name="Path 78" d="M1053.3,383.326H739.616c-6.115,0-11.071-3.53-11.078-7.881v-68.18c.007-4.351,4.962-7.881,11.078-7.881H1053.3c6.115,0,11.071,3.53,11.077,7.881v68.179C1064.375,379.794,1059.418,383.32,1053.3,383.326ZM739.616,302.533c-3.669,0-6.643,2.119-6.647,4.729v68.179c0,2.61,2.977,4.726,6.647,4.729H1053.3c3.669,0,6.643-2.118,6.647-4.729V307.265c0-2.61-2.978-4.726-6.647-4.729Z" transform="translate(-6.842 -140.428)" fill="#e6e6e6"/>
  <path id="Pfad_238" data-name="Pfad 238" d="M791.608,328.391a6.687,6.687,0,0,0-6.679,6.679v46.752a6.687,6.687,0,0,0,6.679,6.679h239.1a6.687,6.687,0,0,0,6.679-6.679V335.07a6.686,6.686,0,0,0-6.679-6.679Z" transform="translate(12.092 -130.689)" fill="#5ab1ba"/>
  <circle id="Ellipse_58" data-name="Ellipse 58" cx="14.693" cy="14.693" r="14.693" transform="translate(822.401 213.732)" fill="#fff"/>
  <path id="Pfad_239" data-name="Pfad 239" d="M866.572,346.616a6.011,6.011,0,0,0,0,12.022h84.153a6.011,6.011,0,0,0,0-12.022Z" transform="translate(37.487 -124.569)" fill="#fff"/>
  <path id="Path_78-2" data-name="Path 78" d="M877.3,264.326H563.615c-6.115,0-11.071-3.53-11.078-7.881v-68.18c.007-4.351,4.962-7.881,11.078-7.881H877.3c6.115,0,11.071,3.53,11.078,7.881v68.179C888.375,260.794,883.418,264.32,877.3,264.326ZM563.615,183.533c-3.669,0-6.643,2.119-6.647,4.729v68.179c0,2.61,2.977,4.726,6.647,4.729H877.3c3.669,0,6.643-2.119,6.647-4.729V188.265c0-2.61-2.978-4.726-6.647-4.729Z" transform="translate(-65.936 -180.384)" fill="#e6e6e6"/>
  <path id="Pfad_240" data-name="Pfad 240" d="M615.608,209.391a6.687,6.687,0,0,0-6.679,6.679v46.752a6.687,6.687,0,0,0,6.679,6.679h239.1a6.687,6.687,0,0,0,6.679-6.679V216.07a6.687,6.687,0,0,0-6.679-6.679Z" transform="translate(-47.002 -170.644)" fill="#5ab1ba"/>
  <circle id="Ellipse_59" data-name="Ellipse 59" cx="14.693" cy="14.693" r="14.693" transform="translate(587.307 54.776)" fill="#fff"/>
  <path id="Pfad_241" data-name="Pfad 241" d="M690.572,227.616a6.011,6.011,0,1,0,0,12.022h84.153a6.011,6.011,0,1,0,0-12.022Z" transform="translate(-21.608 -164.525)" fill="#fff"/>
</svg>
